<svg xmlns="http://www.w3.org/2000/svg" width="830.304" height="49" viewBox="0 0 830.304 49">
  <g id="Group_20" data-name="Group 20" transform="translate(-284 -504)">
    <line id="Line_1" data-name="Line 1" x2="791" transform="translate(286 545)" fill="none" stroke="#707070" stroke-width="3"/>
    <g id="Ellipse_3" data-name="Ellipse 3" transform="translate(549 537)" fill="#fff" stroke="#707070" stroke-width="1">
      <circle cx="8" cy="8" r="8" stroke="none"/>
      <circle cx="8" cy="8" r="7.5" fill="none"/>
    </g>
    <g id="Ellipse_8" data-name="Ellipse 8" transform="translate(464 536)" fill="#fff" stroke="#707070" stroke-width="1">
      <circle cx="8" cy="8" r="8" stroke="none"/>
      <circle cx="8" cy="8" r="7.5" fill="none"/>
    </g>
    <g id="Ellipse_9" data-name="Ellipse 9" transform="translate(379 536)" fill="#fff" stroke="#707070" stroke-width="1">
      <circle cx="8" cy="8" r="8" stroke="none"/>
      <circle cx="8" cy="8" r="7.5" fill="none"/>
    </g>
    <g id="Ellipse_3-2" data-name="Ellipse 3" transform="translate(633 537)" fill="#fff" stroke="#707070" stroke-width="1">
      <circle cx="8" cy="8" r="8" stroke="none"/>
      <circle cx="8" cy="8" r="7.5" fill="none"/>
    </g>
    <g id="Ellipse_3-3" data-name="Ellipse 3" transform="translate(718 537)" fill="#fff" stroke="#707070" stroke-width="1">
      <circle cx="8" cy="8" r="8" stroke="none"/>
      <circle cx="8" cy="8" r="7.5" fill="none"/>
    </g>
    <g id="Ellipse_3-4" data-name="Ellipse 3" transform="translate(803 537)" fill="#fff" stroke="#707070" stroke-width="1">
      <circle cx="8" cy="8" r="8" stroke="none"/>
      <circle cx="8" cy="8" r="7.5" fill="none"/>
    </g>
    <g id="Ellipse_3-5" data-name="Ellipse 3" transform="translate(888 537)" fill="#fff" stroke="#707070" stroke-width="1">
      <circle cx="8" cy="8" r="8" stroke="none"/>
      <circle cx="8" cy="8" r="7.5" fill="none"/>
    </g>
    <g id="Ellipse_7" data-name="Ellipse 7" transform="translate(972 536)" fill="#fff" stroke="#707070" stroke-width="1">
      <circle cx="8" cy="8" r="8" stroke="none"/>
      <circle cx="8" cy="8" r="7.5" fill="none"/>
    </g>
    <g id="start" transform="translate(284 459.063)">
      <g id="Group_13" data-name="Group 13" transform="translate(2.017 66.196)">
        <path id="Path_7" data-name="Path 7" d="M26.646,222.038v19.7H24.012V221.722Z" transform="translate(-24.012 -221.722)" fill="#49618c"/>
        <path id="Path_8" data-name="Path 8" d="M459.244,221.733v20.016H456.61v-19.7Z" transform="translate(-420.279 -221.732)" fill="#49618c"/>
      </g>
      <path id="Path_9" data-name="Path 9" d="M43,51.937V65.923a152.684,152.684,0,0,1-18.024,1.483A152.651,152.651,0,0,1,0,65.923V51.937q3.054.434,6.119.745h0A152.562,152.562,0,0,0,43,51.937Z" fill="#e24260"/>
      <g id="Group_15" data-name="Group 15" transform="translate(6.838 56.05)">
        <path id="Path_13" data-name="Path 13" d="M151.617,109.582h-.028c-1.4-.058-2.827-.146-4.227-.26a.658.658,0,1,1,.107-1.312c1.382.113,2.787.2,4.174.257a.658.658,0,0,1-.027,1.316Z" transform="translate(-141.27 -107.411)" fill="#fff"/>
        <path id="Path_14" data-name="Path 14" d="M172.412,116.807a.658.658,0,0,1-.658-.658v-5.69a.658.658,0,0,1,1.316,0v5.69A.658.658,0,0,1,172.412,116.807Z" transform="translate(-164.167 -109.053)" fill="#fff"/>
        <path id="Path_15" data-name="Path 15" d="M365.719,102.707a.658.658,0,0,1-.061-1.313c1.383-.131,2.783-.292,4.159-.478a.658.658,0,1,1,.177,1.3c-1.394.189-2.811.352-4.212.484Z" transform="translate(-341.24 -100.909)" fill="#fff"/>
        <path id="Path_16" data-name="Path 16" d="M390.662,111.034a.658.658,0,0,1-.658-.658v-5.69a.658.658,0,0,1,1.316,0v5.69A.658.658,0,0,1,390.662,111.034Z" transform="translate(-364.087 -103.765)" fill="#fff"/>
        <path id="Path_17" data-name="Path 17" d="M294.955,114.88a.658.658,0,0,1-.658-.658v-3.108a.658.658,0,0,1,.634-.658c.544-.02,1.1-.045,1.644-.074a2.031,2.031,0,0,1,1.526.553,2.009,2.009,0,0,1,.626,1.474v.195a2.228,2.228,0,0,1-2.082,2.2c-.551.029-1.111.055-1.665.075Zm.658-3.134v1.791c.322-.014.643-.03.961-.047h0a.907.907,0,0,0,.835-.887v-.195a.705.705,0,0,0-.215-.519.733.733,0,0,0-.55-.193C296.3,111.714,295.957,111.731,295.613,111.745Z" transform="translate(-276.418 -109.583)" fill="#fff"/>
        <path id="Path_18" data-name="Path 18" d="M294.955,151.946a.658.658,0,0,1-.658-.658v-2.582a.658.658,0,0,1,.634-.658l.524-.021a3.139,3.139,0,0,1,2.33.863,3.065,3.065,0,0,1,.942,2.236.658.658,0,0,1-1.316,0,1.761,1.761,0,0,0-.536-1.286,1.824,1.824,0,0,0-1.26-.5v1.947A.658.658,0,0,1,294.955,151.946Z" transform="translate(-276.418 -144.067)" fill="#fff"/>
        <path id="Path_19" data-name="Path 19" d="M226.967,119.136a.658.658,0,0,1-.658-.658V114.3a.866.866,0,0,0-1.47-.6.821.821,0,0,0-.243.587v4.179a.658.658,0,1,1-1.316,0v-4.179a2.129,2.129,0,0,1,.631-1.52,2.182,2.182,0,0,1,3.715,1.537v4.179A.658.658,0,0,1,226.967,119.136Z" transform="translate(-211.365 -111.189)" fill="#fff"/>
        <path id="Path_20" data-name="Path 20" d="M226.03,149.642c-.7,0-1.407-.007-2.106-.021a.658.658,0,0,1,.026-1.316c1,.02,2.012.026,3.01.017h.006a.658.658,0,0,1,.006,1.316Q226.5,149.642,226.03,149.642Z" transform="translate(-211.364 -144.325)" fill="#fff"/>
        <path id="Path_21" data-name="Path 21" d="M83.84,110a2.1,2.1,0,0,1-.25-.015c-.532-.064-1.072-.133-1.6-.2a.658.658,0,0,1,.177-1.3c.525.071,1.058.139,1.584.2a.609.609,0,0,0,.486-.138.616.616,0,0,0,.2-.471.981.981,0,0,0-.84-.929l-.177-.021a2.3,2.3,0,0,1-2-2.258,1.888,1.888,0,0,1,.63-1.437,1.915,1.915,0,0,1,1.525-.457c.525.064,1.058.124,1.586.18a.658.658,0,0,1-.139,1.309c-.534-.057-1.074-.118-1.606-.183a.617.617,0,0,0-.493.135.583.583,0,0,0-.186.452,1.008,1.008,0,0,0,.839.951l.175.021a2.29,2.29,0,0,1,2,2.236,1.94,1.94,0,0,1-.64,1.456A1.887,1.887,0,0,1,83.84,110Z" transform="translate(-81.417 -102.775)" fill="#fff"/>
      </g>
    </g>
    <g id="Page-1" transform="translate(1073.885 503.977)">
      <g id="_020---Racing-Flag" data-name="020---Racing-Flag" transform="translate(0.115 0.023)">
        <path id="Shape" d="M43.364,8.424l-.986,4.4-1.064,4.747-1.064,4.754-.773,3.448a.71.71,0,0,1-1.164.376,8.788,8.788,0,0,0-3.456-2.029,12.458,12.458,0,0,0-4.91-.369,44.434,44.434,0,0,0-5.194.93,45.927,45.927,0,0,1-5.194.922,12.458,12.458,0,0,1-4.91-.369v-.007a9.054,9.054,0,0,1-4.328-2.945l1.064-4.747,1.071-4.754L13.52,8.034,14.584,3.28a9.072,9.072,0,0,0,4.328,2.952,12.432,12.432,0,0,0,4.9.369,44.392,44.392,0,0,0,5.194-.922,46.319,46.319,0,0,1,5.2-.922,12.432,12.432,0,0,1,4.9.369A8.906,8.906,0,0,1,43.2,7.793.71.71,0,0,1,43.364,8.424Z" transform="translate(-3.079 -0.969)" fill="#e6e7e8"/>
        <path id="Shape-2" data-name="Shape" d="M18.723,12.932c-.362,1.582-.717,3.158-1.071,4.74a9.038,9.038,0,0,1-4.321-2.945L14.394,9.98A9.072,9.072,0,0,0,18.723,12.932Z" transform="translate(-3.953 -2.915)" fill="#2c2f38"/>
        <path id="Shape-3" data-name="Shape" d="M15.713,26.315c-.071.319-.142.632-.213.951q-.426,1.905-.851,3.8a9.054,9.054,0,0,1-4.328-2.945l1.064-4.747A9,9,0,0,0,15.713,26.315Z" transform="translate(-3.079 -6.804)" fill="#2c2f38"/>
        <path id="Shape-4" data-name="Shape" d="M26.9,7.809c-.355,1.582-.71,3.172-1.064,4.754a12.422,12.422,0,0,1-4.9-.369c.348-1.582.71-3.172,1.064-4.754A12.432,12.432,0,0,0,26.9,7.809Z" transform="translate(-6.16 -2.177)" fill="#2c2f38"/>
        <path id="Shape-5" data-name="Shape" d="M29.6,26.74c-.071.319-.142.632-.213.951-.284,1.27-.568,2.533-.851,3.8a45.928,45.928,0,0,1-5.194.922c.284-1.27.568-2.533.851-3.8.071-.319.142-.632.213-.951A46.489,46.489,0,0,0,29.6,26.74Z" transform="translate(-6.86 -7.782)" fill="#2c2f38"/>
        <path id="Shape-6" data-name="Shape" d="M41.425,5.36l-1.064,4.747a44.815,44.815,0,0,0-5.2.93c.355-1.582.71-3.172,1.064-4.754A46.319,46.319,0,0,1,41.425,5.36Z" transform="translate(-10.293 -1.573)" fill="#2c2f38"/>
        <path id="Shape-7" data-name="Shape" d="M43.955,25.777c-.071.312-.142.632-.213.944-.284,1.263-.568,2.533-.851,3.8a12.458,12.458,0,0,0-4.91-.369c.284-1.263.568-2.533.851-3.8.071-.319.142-.632.213-.951A12.338,12.338,0,0,1,43.955,25.777Z" transform="translate(-11.112 -7.366)" fill="#2c2f38"/>
        <path id="Shape-8" data-name="Shape" d="M51.793,22.215l-1.064,4.754A9.054,9.054,0,0,0,46.4,24.024q.532-2.373,1.064-4.754A9.054,9.054,0,0,1,51.793,22.215Z" transform="translate(-13.557 -5.613)" fill="#2c2f38"/>
        <path id="Shape-9" data-name="Shape" d="M54.715,9.179l-.986,4.4A9.054,9.054,0,0,0,49.4,10.634q.532-2.373,1.064-4.754a8.906,8.906,0,0,1,4.087,2.668A.71.71,0,0,1,54.715,9.179Z" transform="translate(-14.429 -1.724)" fill="#2c2f38"/>
        <path id="Shape-10" data-name="Shape" d="M46.957,12.387l-1.064,4.747a12.3,12.3,0,0,0-4.9-.376l1.064-4.747A12.3,12.3,0,0,1,46.957,12.387Z" transform="translate(-11.986 -3.477)" fill="#2c2f38"/>
        <path id="Shape-11" data-name="Shape" d="M23.895,21.2,22.83,25.943a12.2,12.2,0,0,1-4.91-.369c.355-1.582.71-3.172,1.064-4.754A12.327,12.327,0,0,0,23.895,21.2Z" transform="translate(-5.286 -6.063)" fill="#2c2f38"/>
        <path id="Shape-12" data-name="Shape" d="M32.6,13.36c-.355,1.582-.71,3.158-1.064,4.74a44.7,44.7,0,0,1-5.194.93L27.4,14.282A46.207,46.207,0,0,0,32.6,13.36Z" transform="translate(-7.731 -3.896)" fill="#2c2f38"/>
        <path id="Shape-13" data-name="Shape" d="M38.425,18.74c-.362,1.582-.717,3.172-1.071,4.754a45.926,45.926,0,0,0-5.194.922c.355-1.582.71-3.172,1.064-4.754A46.328,46.328,0,0,1,38.425,18.74Z" transform="translate(-9.422 -5.459)" fill="#2c2f38"/>
        <path id="Shape-14" data-name="Shape" d="M12.366,1.972a2.175,2.175,0,0,1-.05.426L3.964,39.643a1.939,1.939,0,0,1-2.327,1.469l-.071-.021a1.941,1.941,0,0,1-1.4-2.3L8.513,1.539A1.95,1.95,0,0,1,10.84.071h.014A1.959,1.959,0,0,1,12.366,1.972Z" transform="translate(-0.115 -0.023)" fill="#af8066"/>
        <path id="Shape-15" data-name="Shape" d="M2.16,41.11,11.448.09Z" transform="translate(-0.709 -0.042)" fill="#7f5b53"/>
      </g>
    </g>
  </g>
</svg>
