<svg xmlns="http://www.w3.org/2000/svg" width="101.245" height="102.016" viewBox="0 0 101.245 102.016">
  <g id="link_rafa" data-name="link rafa" transform="translate(-534.989 -295)">
    <path id="linkedin-brands" d="M35.462,32H2.719A2.74,2.74,0,0,0,0,34.753V67.437A2.74,2.74,0,0,0,2.719,70.19H35.462a2.747,2.747,0,0,0,2.728-2.753V34.753A2.747,2.747,0,0,0,35.462,32ZM11.542,64.734H5.882V46.509h5.669V64.734ZM8.712,44.02a3.282,3.282,0,1,1,3.282-3.282A3.283,3.283,0,0,1,8.712,44.02ZM32.76,64.734H27.1V55.869c0-2.114-.043-4.833-2.941-4.833-2.949,0-3.4,2.3-3.4,4.68v9.019H15.1V46.509h5.43V49H20.6a5.962,5.962,0,0,1,5.362-2.941c5.728,0,6.794,3.776,6.794,8.687Z" transform="matrix(0.829, 0.559, -0.559, 0.829, 574.238, 317.471)" fill="#0a66c2"/>
    <text id="Rafael" transform="translate(576.542 295) rotate(34)" fill="#030202" font-size="20" font-family="Roboto-Bold, Roboto" font-weight="700"><tspan x="0" y="19">Rafael</tspan></text>
    <line id="Line_16" data-name="Line 16" x1="11.511" y2="13" transform="translate(572.989 334.5)" fill="none" stroke="#707070" stroke-width="1"/>
  </g>
</svg>
