<svg xmlns="http://www.w3.org/2000/svg" width="74.114" height="100.963" viewBox="0 0 74.114 100.963">
  <g id="link_marco" data-name="link marco" transform="translate(-473.44 -271.319)">
    <path id="linkedin-brands" d="M35.462,32H2.719A2.74,2.74,0,0,0,0,34.753V67.437A2.74,2.74,0,0,0,2.719,70.19H35.462a2.747,2.747,0,0,0,2.728-2.753V34.753A2.747,2.747,0,0,0,35.462,32ZM11.542,64.734H5.882V46.509h5.669V64.734ZM8.712,44.02a3.282,3.282,0,1,1,3.282-3.282A3.283,3.283,0,0,1,8.712,44.02ZM32.76,64.734H27.1V55.869c0-2.114-.043-4.833-2.941-4.833-2.949,0-3.4,2.3-3.4,4.68v9.019H15.1V46.509h5.43V49H20.6a5.962,5.962,0,0,1,5.362-2.941c5.728,0,6.794,3.776,6.794,8.687Z" transform="matrix(0.996, 0.087, -0.087, 0.996, 495.928, 299.031)" fill="#0a66c2"/>
    <text id="Marco" transform="matrix(0.995, -0.105, 0.105, 0.995, 473.44, 278.845)" fill="#030202" font-size="20" font-family="Roboto-Bold, Roboto" font-weight="700"><tspan x="0" y="19">Marco</tspan></text>
    <line id="Line_15" data-name="Line 15" x2="6" y2="20" transform="translate(504.497 306.5)" fill="none" stroke="#707070" stroke-width="1"/>
  </g>
</svg>
