<svg xmlns="http://www.w3.org/2000/svg" xmlns:xlink="http://www.w3.org/1999/xlink" width="65.656" height="62.677" viewBox="0 0 65.656 62.677"><defs><style>.a{fill:#25d9f8;}.b{fill:#ff641a;}.c{fill:#ffda2d;}.d{fill:#fdbf00;}.e{fill:#9cdd05;}.f{fill:#ff9100;}.g{fill:#979fef;}.h{fill:#737ee6;}.i{fill:#47568c;}.j{fill:#2c3b73;}.k{filter:url(#e);}.l{filter:url(#c);}.m{filter:url(#a);}</style><filter id="a" x="23.828" y="15.65" width="41.828" height="47.027" filterUnits="userSpaceOnUse"><feOffset dy="3" input="SourceAlpha"/><feGaussianBlur stdDeviation="3" result="b"/><feFlood flood-opacity="0.161"/><feComposite operator="in" in2="b"/><feComposite in="SourceGraphic"/></filter><filter id="c" x="0" y="15.65" width="41.828" height="47.027" filterUnits="userSpaceOnUse"><feOffset dy="3" input="SourceAlpha"/><feGaussianBlur stdDeviation="3" result="d"/><feFlood flood-opacity="0.161"/><feComposite operator="in" in2="d"/><feComposite in="SourceGraphic"/></filter><filter id="e" x="8.47" y="0" width="48.716" height="40.059" filterUnits="userSpaceOnUse"><feOffset dy="3" input="SourceAlpha"/><feGaussianBlur stdDeviation="3" result="f"/><feFlood flood-opacity="0.161"/><feComposite operator="in" in2="f"/><feComposite in="SourceGraphic"/></filter></defs><g transform="translate(9 6)"><g class="m" transform="matrix(1, 0, 0, 1, -9, -6)"><path class="a" d="M271.343,184.138l-11.169,10.585L256,210.663a15.257,15.257,0,0,0,8.377,2.5,15.318,15.318,0,0,0,6.966-29.027Z" transform="translate(-223.17 -162.49)"/></g><g class="l" transform="matrix(1, 0, 0, 1, -9, -6)"><path class="b" d="M22.446,194.724,8.485,184.139a15.318,15.318,0,0,0,6.966,29.027,15.257,15.257,0,0,0,8.377-2.5Z" transform="translate(9 -162.49)"/></g><g class="k" transform="matrix(1, 0, 0, 1, -9, -6)"><path class="c" d="M121.716,31.358a.86.86,0,0,1-.028.279l-15.33,6.422-15.33-6.422A.86.86,0,0,1,91,31.358a15.358,15.358,0,1,1,30.716,0Z" transform="translate(-73.53 -10)"/></g><path class="d" d="M271.358,31.358a.86.86,0,0,1-.028.279L256,38.059V16A15.385,15.385,0,0,1,271.358,31.358Z" transform="translate(-232.172 -16)"/><path class="e" d="M264.377,166A15.257,15.257,0,0,0,256,168.5l6.966,12.563a15.358,15.358,0,0,0,8.377-13.377A15.245,15.245,0,0,0,264.377,166Z" transform="translate(-232.172 -152.038)"/><path class="f" d="M98.125,166a15.245,15.245,0,0,0-6.966,1.688,15.358,15.358,0,0,0,8.377,13.377L106.5,168.5A15.257,15.257,0,0,0,98.125,166Z" transform="translate(-82.674 -152.038)"/><path class="g" d="M194.962,328.278a15.325,15.325,0,0,1-6.981,12.845A15.325,15.325,0,0,1,181,328.278a.861.861,0,0,1,.028-.279h13.906A.861.861,0,0,1,194.962,328.278Z" transform="translate(-164.153 -298.959)"/><path class="h" d="M262.981,328.278A15.325,15.325,0,0,1,256,341.123V328h6.953A.861.861,0,0,1,262.981,328.278Z" transform="translate(-232.172 -298.959)"/><path class="i" d="M195.206,205.564a15.264,15.264,0,0,1-13.906,0A15.218,15.218,0,0,1,188.253,193,15.219,15.219,0,0,1,195.206,205.564Z" transform="translate(-164.425 -176.524)"/><path class="j" d="M262.953,205.564A15.3,15.3,0,0,1,256,207.24V193A15.219,15.219,0,0,1,262.953,205.564Z" transform="translate(-232.172 -176.524)"/></g></svg>