<svg xmlns="http://www.w3.org/2000/svg" width="109.103" height="102.285" viewBox="0 0 109.103 102.285"><defs><style>.a{fill:#25d9f8;}.b{fill:#ff641a;}.c{fill:#ffda2d;}.d{fill:#fdbf00;}.e{fill:#9cdd05;}.f{fill:#ff9100;}.g{fill:#979fef;}.h{fill:#737ee6;}.i{fill:#47568c;}.j{fill:#2c3b73;}</style></defs><path class="a" d="M291.126,184.138l-25.571,24.234L256,244.864a34.929,34.929,0,0,0,19.178,5.729,35.07,35.07,0,0,0,15.948-66.456Z" transform="translate(-201.448 -148.309)"/><path class="b" d="M51.389,208.373,19.425,184.139a35.07,35.07,0,0,0,15.948,66.455,34.928,34.928,0,0,0,19.178-5.729Z" transform="translate(0 -148.31)"/><path class="c" d="M161.321,51.16a1.969,1.969,0,0,1-.064.639l-35.1,14.7-35.1-14.7A1.97,1.97,0,0,1,91,51.16a35.16,35.16,0,1,1,70.321,0Z" transform="translate(-71.609 -16)"/><path class="d" d="M291.16,51.16a1.969,1.969,0,0,1-.064.639L256,66.5V16A35.222,35.222,0,0,1,291.16,51.16Z" transform="translate(-201.448 -16)"/><path class="e" d="M275.178,166A34.928,34.928,0,0,0,256,171.729l15.948,28.762a35.16,35.16,0,0,0,19.178-30.626A34.9,34.9,0,0,0,275.178,166Z" transform="translate(-201.448 -134.036)"/><path class="f" d="M107.107,166a34.9,34.9,0,0,0-15.948,3.865,35.16,35.16,0,0,0,19.178,30.626l15.948-28.762A34.928,34.928,0,0,0,107.107,166Z" transform="translate(-71.734 -134.036)"/><path class="g" d="M212.964,328.638a35.084,35.084,0,0,1-15.982,29.407A35.084,35.084,0,0,1,181,328.638a1.972,1.972,0,0,1,.064-.639H212.9A1.972,1.972,0,0,1,212.964,328.638Z" transform="translate(-142.43 -261.514)"/><path class="h" d="M271.982,328.638A35.084,35.084,0,0,1,256,358.045V328h15.918A1.971,1.971,0,0,1,271.982,328.638Z" transform="translate(-201.448 -261.514)"/><path class="i" d="M213.136,221.766a34.946,34.946,0,0,1-31.836,0A34.841,34.841,0,0,1,197.218,193,34.842,34.842,0,0,1,213.136,221.766Z" transform="translate(-142.666 -155.282)"/><path class="j" d="M271.918,221.766A35.028,35.028,0,0,1,256,225.6V193A34.842,34.842,0,0,1,271.918,221.766Z" transform="translate(-201.448 -155.282)"/></svg>