<svg xmlns="http://www.w3.org/2000/svg" width="32.172" height="40.813" viewBox="0 0 32.172 40.813"><defs><style>.a{fill:#f4d44e;}.b{fill:#e8c842;}.c{fill:#00bb2d;}.d{fill:#009424;}.e{fill:#5085ba;}.f{fill:#3a77aa;}.g{fill:#656566;}.h{fill:#545456;}.i{fill:#cc9d72;}.j{fill:#c19067;}</style></defs><path class="a" d="M86.853,81.1a3.348,3.348,0,0,1-2.475-1.533,1.931,1.931,0,0,0-.19-.411,2.025,2.025,0,0,0-.3-.38l.177-.247A5.321,5.321,0,0,0,84.8,75.73l.019-.264,1.27-1.258.134-.882a.968.968,0,0,1,1.192-.793l.84.211a13.2,13.2,0,0,0,4.829-.854l0,.263a8.893,8.893,0,0,1-.247,2.635l.235,1.485a.415.415,0,0,1-.394.48c-.255.046-.922-.145-1.2.458-.3.664-1.019,1.841-2.26,1.715-1.719-.174-2.28,2.087-2.28,2.087l-.082.218V81.1Z" transform="translate(-63.294 -66.16)"/><path class="b" d="M85.416,81.09l-.087-.007-.051-.007-.076-.011-.054-.01-.071-.015-.055-.014-.067-.018-.055-.017-.064-.021-.054-.02-.061-.024-.053-.022-.058-.026-.053-.025-.056-.028-.052-.027L84.4,80.77l-.051-.03-.049-.03-.051-.032-.046-.031-.051-.035-.042-.03-.051-.037-.037-.029-.052-.04-.028-.023-.057-.047h0l.02-.054s.6-2.431,2.452-2.243a1.816,1.816,0,0,0,.881-.124h0l0,0c2.27-.877,2.666-4.407,2.735-5.518a7.656,7.656,0,0,0,1.849-.576l0,.263a8.893,8.893,0,0,1-.247,2.635l.235,1.485a.415.415,0,0,1-.394.48c-.255.046-.922-.145-1.2.458-.3.664-1.019,1.841-2.26,1.715-1.719-.174-2.28,2.087-2.28,2.087l-.082.218V81.1c-.045,0-.089,0-.133,0Z" transform="translate(-62.035 -66.16)"/><path class="a" d="M57.568,209.649l1.856,2.942a2.362,2.362,0,0,0,1.041.91l3.239,1.451.19.065a3.5,3.5,0,0,1,2.078,1.908,1.022,1.022,0,0,1-.036.894l-.092.171a.764.764,0,0,1-1.044.306c-2.276-1.253-.26-.3-6.252-2.638-.823-.315-.995-.926-2.036-2.2A14.314,14.314,0,0,0,57.568,209.649Z" transform="translate(-34.072 -192.938)"/><path class="b" d="M67.087,232.1l1.427,2.262a2.361,2.361,0,0,0,1.041.91l3.239,1.451.19.065a3.258,3.258,0,0,1,2.162,2.259.759.759,0,0,1-.471-.089c-2.276-1.253-.26-.3-6.252-2.638-.823-.315-.995-.926-2.036-2.2A15.646,15.646,0,0,0,67.087,232.1Z" transform="translate(-43.946 -213.6)"/><path class="c" d="M163.22,170.755l1.436-.681a.36.36,0,0,0,.5.118l1.582-.973a1.956,1.956,0,0,0,.886-2.056l.105-.051a3.348,3.348,0,0,0,2.475,1.533v.953s.089,4.068-3.436,8.768l-5.54-3.066Z" transform="translate(-146.559 -153.79)"/><path class="d" d="M164.493,168.816a1.965,1.965,0,0,0,.417-1.652l.105-.051a3.348,3.348,0,0,0,2.475,1.533v.953s.089,4.068-3.436,8.768l-2.83-1.566A16.357,16.357,0,0,0,164.493,168.816Z" transform="translate(-143.85 -153.792)"/><path class="e" d="M248.373,315.333l5.066.225a1.3,1.3,0,0,0,1.245-.763l1.666-3.616a2.806,2.806,0,0,0,.19.763,10.317,10.317,0,0,0,3.207,3.24l.1.218-2.788,3.814a2.26,2.26,0,0,1-2.169.9l-7.461-1.168Z" transform="translate(-243.081 -286.374)"/><path class="f" d="M253.766,350.482a2.26,2.26,0,0,0,2.169-.9l2.323-3.178c.461.405.973.81,1.491,1.2l.1.218-2.788,3.814a2.26,2.26,0,0,1-2.169.9l-7.461-1.168.469-1.8Z" transform="translate(-243.084 -318.792)"/><path class="g" d="M389.042,358.457l2.853-3.915a.892.892,0,0,1,1.057-.219l1.348.645-.86,3.665a4.815,4.815,0,0,1-4.066,1.2A.835.835,0,0,1,389.042,358.457Z" transform="translate(-388.8 -326)"/><path class="h" d="M394.49,388.28l.547-.751c1.205.49,3.1-.14,4.277-.887l-.426,1.814a4.815,4.815,0,0,1-4.066,1.2A.835.835,0,0,1,394.49,388.28Z" transform="translate(-394.248 -355.822)"/><path class="a" d="M227.867,180.718c1.167-1.593.555-.592,3.324-5.916.438-.845,1-.843,4.728-3.137l1.649,2.681-3.429,1.669a2.362,2.362,0,0,0-1.021.933L231.313,180a3.537,3.537,0,0,1-2.215,2.033,1.132,1.132,0,0,1-1.044-.247A.764.764,0,0,1,227.867,180.718Z" transform="translate(-219.229 -157.981)"/><path class="b" d="M228.344,195.931l1.965-4.134a3.047,3.047,0,0,1,1.2-1.316l3.9-2.355.842,1.369-3.429,1.669a2.362,2.362,0,0,0-1.021.933L230,195.151a3.537,3.537,0,0,1-2.215,2.033c-.021.007-.041.011-.062.016A5.058,5.058,0,0,0,228.344,195.931Z" transform="translate(-217.918 -173.129)"/><path class="e" d="M105.886,267.9s-2.242,2.108-1.356,4.294c.684,1.687,4.446,4.17,6.131,5.217a4.213,4.213,0,0,1,1.347,1.344l3.808,6.085,3.513-2.323c-5.574-8.695-3.685-6-7.914-11.475Z" transform="translate(-91.153 -246.542)"/><path class="f" d="M104.322,269.375a6.117,6.117,0,0,1,1.092-1.478l5.53,3.141c4.229,5.471,2.34,2.781,7.914,11.475l-1.639,1.084c-4.367-6.843-3.608-5.787-6.73-9.8C108.6,271.371,106.573,270.786,104.322,269.375Z" transform="translate(-90.681 -246.542)"/><path class="g" d="M57.649,444.868a4.047,4.047,0,0,1,3.821.239.792.792,0,0,1-.192,1.341l-4.85,3.362c-.346.2-.612.007-.853-.338L54.2,447.285Z" transform="translate(-29.591 -409.079)"/><path class="h" d="M54.2,445.99l1.6-1.121a4.047,4.047,0,0,1,3.821.239.792.792,0,0,1-.192,1.341L57.9,447.505A4.907,4.907,0,0,0,54.2,445.99Z" transform="translate(-27.742 -409.079)"/><path class="c" d="M195.5,150.767h0a1.954,1.954,0,0,1-.639,2.681l-1.582.973a.36.36,0,0,1-.5-.118l-1.649-2.681a.481.481,0,0,1,.158-.662l1.4-.862A2.046,2.046,0,0,1,195.5,150.767Z" transform="translate(-174.524 -137.857)"/><path class="d" d="M191.535,156.614l1.582-.973a2.046,2.046,0,0,0,1.036-1.663,1.96,1.96,0,0,1-.018,3.317l-1.582.973a.36.36,0,0,1-.5-.118l-.978-1.59A.33.33,0,0,0,191.535,156.614Z" transform="translate(-173.798 -141.704)"/><path class="i" d="M69.6.443s4.457-1.917,6.954,2.226c2.519,4.18-5.724,4.079-5.724,4.079l-.84-.211a.968.968,0,0,0-1.192.793,1.876,1.876,0,0,1-.437,1.182L67.292,9.571C63.063,1.944,69.6.443,69.6.443Z" transform="translate(-45.791 0)"/><path class="j" d="M71.672,3.309a5.272,5.272,0,0,0-5.8-2.55,5.066,5.066,0,0,1,.874-.316S71.2-1.473,73.7,2.67c1.478,2.452-.747,3.431-2.839,3.821C72.008,5.9,72.65,4.929,71.672,3.309Z" transform="translate(-42.933 -0.001)"/></svg>