<svg xmlns="http://www.w3.org/2000/svg" width="245" height="244.998" viewBox="0 0 245 244.998"><defs><style>.a{fill:#e62e2e;}.b{fill:#ff6673;}.c{fill:#ffbe40;}.d{fill:#ff9f40;}.e{fill:#ffdf40;}</style></defs><g transform="translate(0 -0.002)"><path class="a" d="M386.536,345.8l-50.652-50.1-60.442,41.061L335.235,397.1a7.177,7.177,0,0,0,12.253-5.075V358.051h33.974a7.177,7.177,0,0,0,5.075-12.253Z" transform="translate(-143.64 -154.204)"/><path class="b" d="M52.2,296.842,2.1,346.394a7.177,7.177,0,0,0,5.075,12.253H41.153v33.974A7.177,7.177,0,0,0,53.406,397.7l63.493-64.04Z" transform="translate(0 -154.799)"/><path class="c" d="M244.231,103.071,225.922,84.762l6.7-25a7.179,7.179,0,0,0-5.075-8.79l-25-6.7-6.7-25a7.17,7.17,0,0,0-8.79-5.075l-25,6.7L143.744,2.105a7.174,7.174,0,0,0-10.149,0L115.286,20.892l-25-6.7a7.215,7.215,0,0,0-8.79,5.075l-6.7,25-25,6.7a7.179,7.179,0,0,0-5.075,8.79l6.7,25L33.107,103.071a7.175,7.175,0,0,0,0,10.15l18.309,18.309-6.7,25a7.179,7.179,0,0,0,5.075,8.79l25,6.7,6.7,25a7.181,7.181,0,0,0,8.79,5.075l25-6.7,18.309,18.309a7.174,7.174,0,0,0,10.149,0L162.052,195.4l25,6.7a7.139,7.139,0,0,0,8.79-5.075l6.7-25,25-6.7a7.179,7.179,0,0,0,5.075-8.79l-6.7-25L244.23,113.22A7.174,7.174,0,0,0,244.231,103.071Z" transform="translate(-16.169)"/><path class="d" d="M279.387,195.4l25,6.7a7.139,7.139,0,0,0,8.79-5.075l6.7-25,25-6.7a7.179,7.179,0,0,0,5.075-8.79l-6.7-25,18.309-18.309a7.175,7.175,0,0,0,0-10.15L343.256,84.762l6.7-25a7.179,7.179,0,0,0-5.075-8.79l-25-6.7-6.7-25a7.17,7.17,0,0,0-8.79-5.075l-25,6.7L261.079,2.105A7.154,7.154,0,0,0,256,0V215.81a7.153,7.153,0,0,0,5.075-2.1Z" transform="translate(-133.504)"/><circle class="e" cx="64.5" cy="64.5" r="64.5" transform="translate(58 44.002)"/><path class="c" d="M320.6,155.6A64.67,64.67,0,0,0,256,91V220.2A64.669,64.669,0,0,0,320.6,155.6Z" transform="translate(-133.503 -47.456)"/><path class="c" d="M252.331,177.989a7.18,7.18,0,0,0-5.8-4.886l-16.878-2.453-7.549-15.295a7.466,7.466,0,0,0-12.869,0l-7.549,15.295L184.81,173.1a7.175,7.175,0,0,0-3.981,12.238l12.217,11.909-2.881,16.809a7.174,7.174,0,0,0,10.409,7.563l15.1-7.927,15.1,7.927a7.174,7.174,0,0,0,10.409-7.563L238.3,197.251l12.217-11.909A7.181,7.181,0,0,0,252.331,177.989Z" transform="translate(-93.171 -79.097)"/><path class="d" d="M278.658,221.076a7.173,7.173,0,0,0,2.853-7.016l-2.881-16.809,12.217-11.909a7.175,7.175,0,0,0-3.981-12.238l-16.878-2.453-7.549-15.295a7,7,0,0,0-6.435-3.68V213.7l15.1,7.927a7.158,7.158,0,0,0,7.556-.546Z" transform="translate(-133.504 -79.097)"/></g></svg>