<svg xmlns="http://www.w3.org/2000/svg" width="25.227" height="25.228" viewBox="0 0 25.227 25.228">
  <g id="Group_20" data-name="Group 20" transform="translate(-357.498 -418.525)">
    <path id="Path_2" data-name="Path 2" d="M37.578,67.772a5.363,5.363,0,0,0-7.575,0L26.995,70.78a5.357,5.357,0,0,0,7.575,7.575l3.008-3.008A5.363,5.363,0,0,0,37.578,67.772Zm-9,9a3.127,3.127,0,0,1,0-4.412l3.008-3.008a3.119,3.119,0,1,1,4.409,4.412l-3.005,3.008A3.127,3.127,0,0,1,28.576,76.774Z" transform="translate(332.07 363.831)" fill="#707070"/>
    <path id="Path_3" data-name="Path 3" d="M78.25,27.092a5.363,5.363,0,0,0-7.575,0L67.669,30.1a5.357,5.357,0,0,0,7.575,7.575L78.25,34.67A5.361,5.361,0,0,0,78.25,27.092Zm-9,9a3.122,3.122,0,0,1,0-4.412l3.008-3.005a3.118,3.118,0,0,1,4.409,4.409L73.66,36.094a3.119,3.119,0,0,1-4.409,0Z" transform="translate(302.907 393)" fill="#707070"/>
    <path id="Path_4" data-name="Path 4" d="M63.8,59.017l-4.893,4.89a1.339,1.339,0,1,1-1.893-1.893l4.89-4.893a1.341,1.341,0,1,1,1.9,1.9Z" transform="translate(309.7 370.625)" fill="#707070"/>
  </g>
</svg>
