<svg xmlns="http://www.w3.org/2000/svg" width="444.102" height="367.344" viewBox="0 0 444.102 367.344">
  <g id="_2" data-name="2" transform="translate(-762.898 -726)">
    <g id="Group_86" data-name="Group 86" transform="translate(482.637 318.429)">
      <g id="Group_61" data-name="Group 61" transform="translate(285.501 506.009)">
        <g id="Group_60" data-name="Group 60" transform="translate(0 50.924)">
          <path id="Path_111" data-name="Path 111" d="M293.132,1091.032a71.42,71.42,0,0,1,37.971-36.867c17.454-7.025,37.5-4.468,55.88-6.821,15.967-2.043,27.488-9.128,37.022-21.723,9.135-12.068,17.326-25.434,32.262-31.016,11.8-4.411,25.219-3.188,36.949,1.408,21.614,8.47,37.938,26.478,51.687,44.419,12.552,16.38,22.791,34.317,46.009,34.9,23.233.586,45.352-12.586,68.745-9.1,30.917,4.613,56.665,30.192,62.061,60.644,5.057,28.54-7.632,56.22-29.431,72.484H317.6C290.13,1170.407,275.716,1130.4,293.132,1091.032Z" transform="translate(-285.545 -991.86)" fill="#874fbe" opacity="0.61"/>
          <g id="Group_59" data-name="Group 59" transform="translate(3.065 5.758)">
            <path id="Path_112" data-name="Path 112" d="M571.866,1373.2h-1.024a78.575,78.575,0,0,1-16.229-27.839c-5.734-17.047-5.492-34.937.681-50.375,3.12-7.8,7.624-15.073,11.981-22.1,4.418-7.131,8.986-14.505,12.087-22.407a49.981,49.981,0,0,0,2.8-10.355c.257-.033.514-.061.771-.092a50.664,50.664,0,0,1-2.872,10.721c-3.125,7.966-7.712,15.369-12.147,22.529-4.34,7-8.827,14.247-11.922,21.988-6.107,15.273-6.343,32.98-.666,49.858A77.716,77.716,0,0,0,571.866,1373.2Z" transform="translate(-228.54 -1171.451)" fill="#fff"/>
            <path id="Path_113" data-name="Path 113" d="M778.138,1180.357c-7.743,1.635-15.2,3.1-22.421,4.023-.124-.236-.244-.474-.366-.71,7.276-.916,14.807-2.394,22.629-4.045,11.91-2.514,24.8-5.236,37.585-5.236a67.268,67.268,0,0,1,23.367,3.825,47.857,47.857,0,0,1,8.269,3.983c6.84-2.889,13.716-6.042,20.528-9.5-4.943-3.69-9.938-7.3-14.986-10.8-37.476-25.931-72.063-40.631-105.477-44.8.067-.242.137-.485.206-.728,33.5,4.207,68.165,18.945,105.7,44.917,5.156,3.568,10.256,7.26,15.3,11.03a253.825,253.825,0,0,0,22.556-12.988,195.94,195.94,0,0,0,42.894-37.3c-53.488-5.946-107.945-13.438-152.415-42.889-1.689-1.119-3.56-2.437-5.5-3.933.215-.151.431-.3.647-.448,1.857,1.425,3.648,2.684,5.27,3.758,44.459,29.444,99.017,36.878,152.574,42.823a145.371,145.371,0,0,0,24.524-41.318c9.433-24.761,8.936-49.061-1.367-66.668-.448-.765-.92-1.517-1.407-2.263.43.2.857.4,1.283.6q.4.638.778,1.285c10.416,17.8,10.934,42.335,1.42,67.308a145.935,145.935,0,0,1-24.334,41.152q4.65.515,9.293,1.021c11.153,1.22,22.686,2.481,33.884,3.909,4.088.521,8.244,1.13,12.38,1.892,8.866-18.543,18.606-36.633,31.2-52.147.18.178.363.35.545.526-12.482,15.4-22.161,33.351-30.974,51.765,18.04,3.409,35.558,9.818,44.911,24.735,8.735,13.931,8.727,33.187-.024,57.235q-.454,1.247-.93,2.466h-.809c.347-.89.691-1.791,1.029-2.72,8.668-23.821,8.7-42.859.092-56.586-9.242-14.74-26.663-21.063-44.6-24.431-3.13,6.561-6.154,13.176-9.159,19.75l-.327.715c-10.436,22.83-21.231,44.862-35.365,63.272H945.6c14.262-18.444,25.118-40.608,35.619-63.58l.327-.715c2.98-6.518,5.978-13.077,9.08-19.583-4.056-.743-8.133-1.338-12.143-1.849-11.191-1.427-22.72-2.689-33.87-3.908q-4.884-.534-9.786-1.075a196.441,196.441,0,0,1-43.379,37.828,254.243,254.243,0,0,1-22.3,12.863c12.855,9.635,25.36,19.772,37.568,29.669q6.341,5.141,12.814,10.351h-1.2q-6.1-4.9-12.094-9.772c-12.295-9.967-24.888-20.176-37.835-29.868-6.774,3.453-13.612,6.6-20.416,9.486a55.936,55.936,0,0,1,21.48,25.979c.574,1.381,1.076,2.775,1.54,4.175h-.8c-.438-1.3-.908-2.6-1.443-3.89a55.085,55.085,0,0,0-21.627-25.906,502.443,502.443,0,0,1-53.771,18.659l-.6.177c-6.768,1.983-13.691,4.016-19.814,7.28-.171-.193-.343-.386-.513-.58,6.223-3.345,13.247-5.406,20.113-7.417l.6-.177a503.394,503.394,0,0,0,53.19-18.419,47.024,47.024,0,0,0-7.673-3.643C819.062,1171.716,797.32,1176.307,778.138,1180.357Z" transform="translate(-747.267 -1011.084)" fill="#fff"/>
            <path id="Path_114" data-name="Path 114" d="M327.8,1352.257a59.99,59.99,0,0,0,4.049,40.113,69.053,69.053,0,0,0,16.265,21.007c-.136.212-.276.422-.414.633a69.822,69.822,0,0,1-16.523-21.309,60.748,60.748,0,0,1-4.1-40.621c2.616-10.709,7.876-19.779,15.143-26.342q.243.286.483.574C335.55,1332.773,330.375,1341.706,327.8,1352.257Z" transform="translate(74.19 -1231.489)" fill="#fff"/>
          </g>
        </g>
        <path id="Path_115" data-name="Path 115" d="M809.1,827.8c-6.524,6.666-9.447,17.9-5.85,28.25,3.483,10.025,11.117,18.329,20.29,23.668,7.38,4.3,17.007,6.665,24.265,2.167,5.424-3.361,8.236-9.955,8.393-16.334s-1.989-12.6-4.64-18.4c-3.737-8.181-8.768-16.115-16.261-21.09C824.967,819.2,815.37,821.39,809.1,827.8Z" transform="translate(-574.622 -821.845)" fill="#874fbe" opacity="0.6"/>
      </g>
      <g id="Group_62" data-name="Group 62" transform="translate(607.545 370.954)">
        <path id="Path_116" data-name="Path 116" d="M489.928,395.085h54.017V370.954H489.928Zm52.894-1.123H491.051V372.077h51.771Z" transform="translate(-739.778 -269.954)" fill="#e9ddca"/>
        <path id="Path_117" data-name="Path 117" d="M372.607,472.128h54.017V448H372.607Zm52.894-1.123H373.73V449.12H425.5Z" transform="translate(-649.466 -328.92)" fill="#e9ddca"/>
      </g>
      <g id="Group_84" data-name="Group 84" transform="translate(321.006 451.703)">
        <g id="Group_83" data-name="Group 83" transform="translate(0 111.018)">
          <g id="Group_71" data-name="Group 71" transform="translate(0 122.678)">
            <g id="Group_69" data-name="Group 69" transform="translate(90.922 50.512)">
              <path id="Path_122" data-name="Path 122" d="M545.839,1604.963l-2.881,11.109a6.365,6.365,0,0,1-6.651,4.644c-9.448-.642-29.079-2.957-40.345-11.261l3.2-16.01c15.491-.875,29.978-.014,42.523,4.21A6.135,6.135,0,0,1,545.839,1604.963Z" transform="translate(-495.961 -1593.136)" fill="#102048"/>
              <path id="Path_123" data-name="Path 123" d="M543.083,1628a.375.375,0,0,0,.36-.274l3.869-13.853a.375.375,0,0,0-.722-.2l-3.869,13.853a.374.374,0,0,0,.26.461A.38.38,0,0,0,543.083,1628Z" transform="translate(-511.26 -1607.326)" fill="#fff"/>
              <path id="Path_124" data-name="Path 124" d="M571,1621.744a.375.375,0,0,0,.361-.274l3.869-13.853a.374.374,0,0,0-.721-.2l-3.869,13.853a.375.375,0,0,0,.26.461A.382.382,0,0,0,571,1621.744Z" transform="translate(-547.538 -1602.947)" fill="#fff"/>
            </g>
            <path id="Path_125" data-name="Path 125" d="M579.079,1426.788l36,10.686-26.739,36.636-38.387,3.053-52.948-22.389,20.12-30.276Z" transform="translate(-474.408 -1424.498)" fill="#874fbe"/>
            <path id="Path_126" data-name="Path 126" d="M681.917,1438c-79.069-23.407-91.776,46.474,31.592,59.2,4.358-4.9,9.45-13.411,11.472-20.523l-65.149-30.106Z" transform="translate(-621.633 -1430.624)" fill="#874fbe"/>
            <path id="Path_127" data-name="Path 127" d="M710.166,1608.095a34.208,34.208,0,0,0,7.241-3.524l12.708,3.986L727.2,1622.38l-13.2,2.682C709.981,1617.707,709.746,1611.668,710.166,1608.095Z" transform="translate(-653.241 -1550.634)" fill="#f9b384"/>
            <path id="Path_128" data-name="Path 128" d="M698.4,1501.652l.564-.971c-13.591-7.9-48.4-26.875-78.066-32.471l-.208,1.1C650.181,1474.878,684.859,1493.783,698.4,1501.652Z" transform="translate(-595.335 -1455.117)" fill="#69349c"/>
            <path id="Path_129" data-name="Path 129" d="M462.172,1427.878c73.6-13.993,92.658,56.736-30.71,69.457a44.814,44.814,0,0,1-9.8-17.809,561.657,561.657,0,0,1,63.361-36.213Z" transform="translate(-357.5 -1425.589)" fill="#874fbe"/>
            <path id="Path_130" data-name="Path 130" d="M514.857,1505.819c3.5-2.228,7.149-4.584,11.011-7.078,19.388-12.518,41.362-26.706,60.032-34.8l-.447-1.031c-18.754,8.127-40.77,22.342-60.194,34.883-3.861,2.493-7.507,4.847-11.005,7.073Z" transform="translate(-450.389 -1451.408)" fill="#69349c"/>
            <path id="Path_131" data-name="Path 131" d="M446.123,1524.507l.983-.543a20.65,20.65,0,0,0-13.152-10.026l-.3,1.082C439.4,1516.61,443.475,1519.714,446.123,1524.507Z" transform="translate(-287.454 -1487.148)" fill="#69349c"/>
            <path id="Path_132" data-name="Path 132" d="M909.127,1510.291c2.648-4.793,6.726-7.9,12.468-9.487l-.3-1.082a20.651,20.651,0,0,0-13.152,10.026Z" transform="translate(-904.066 -1477.19)" fill="#69349c"/>
            <path id="Path_133" data-name="Path 133" d="M705.322,1612.574l.821-.766c-5.887-6.305-9.5-12.962-11.054-20.35l-1.1.231C695.584,1599.283,699.291,1606.115,705.322,1612.574Z" transform="translate(-624.469 -1541.449)" fill="#69349c"/>
            <g id="Group_70" data-name="Group 70" transform="translate(14.822 51.535)">
              <path id="Path_134" data-name="Path 134" d="M769.21,1598.359c9.43-5.826,27.709,4.24,32.3,4.749a11.046,11.046,0,0,0,4.407-.632c-.42,3.573-.185,9.613,3.836,16.968l-2.242.456s-15.5,5.682-31.945,2.375C760.386,1619.222,761.8,1602.939,769.21,1598.359Z" transform="translate(-763.812 -1596.551)" fill="#102048"/>
              <path id="Path_135" data-name="Path 135" d="M850.608,1628.116a.379.379,0,0,0,.113-.017.374.374,0,0,0,.244-.47c-1.12-3.547-1.609-10.525,1.636-15.212a.375.375,0,0,0-.616-.427c-3.4,4.908-2.9,12.176-1.734,15.864A.375.375,0,0,0,850.608,1628.116Z" transform="translate(-832.357 -1607.253)" fill="#fff"/>
              <path id="Path_136" data-name="Path 136" d="M825.921,1632.8a.374.374,0,0,0,.357-.487c-1.12-3.547-1.609-10.526,1.636-15.213a.374.374,0,0,0-.616-.426c-3.4,4.908-2.9,12.176-1.734,15.864A.374.374,0,0,0,825.921,1632.8Z" transform="translate(-800.275 -1610.537)" fill="#fff"/>
            </g>
          </g>
          <g id="Group_79" data-name="Group 79" transform="translate(5.457)">
            <g id="Group_74" data-name="Group 74" transform="translate(0 18.965)">
              <path id="Path_143" data-name="Path 143" d="M563.12,1270.671l67.769,2.621,7.488-61.778s-22.687-21.519-31.416-29.443l-14.735-.756C546.508,1202.1,553.994,1228.05,563.12,1270.671Z" transform="translate(-520.902 -1150.443)" fill="#3a6bea"/>
              <path id="Path_144" data-name="Path 144" d="M781.652,1181.315s-52.3,4.473-68.793,40.308c-16.135,35.064,50.171,47.55,50.171,47.55Z" transform="translate(-710.329 -1150.443)" fill="#3a6bea"/>
              <path id="Path_145" data-name="Path 145" d="M407.948,1119.849l-21.614,30.869,20.212,14.376c8.431-6.88,24.735-22.464,38.552-40.111a35.246,35.246,0,0,0,6.632-13.455,33.82,33.82,0,0,0,.634-12.632h0c-1.5-10.776-33.235-21.78-42.877-23.106-3.467-.476,6.89-2.443-2.941-1.318-12.776,1.462-22.952,9.464-37.694,14.552l-7.488,33.919C365.212,1125.507,393.81,1125.952,407.948,1119.849Z" transform="translate(-305.838 -1044.808)" fill="#3a6bea"/>
            </g>
            <g id="Group_75" data-name="Group 75" transform="translate(0.553 27.664)" opacity="0.8">
              <path id="Path_146" data-name="Path 146" d="M770.9,1204.662l-.338-.078c.236-.14.474-.276.71-.413a113.424,113.424,0,0,0,11.686,2.255c2.343.282,10.171.8,12.459-4.416,1.138-2.595.277-5.481-1.01-7.506l.561-.161c1.318,2.146,2.164,5.156.964,7.892-2.443,5.571-10.6,5.043-13.04,4.748A115.759,115.759,0,0,1,770.9,1204.662Z" transform="translate(-743.776 -1168.268)" fill="#fff"/>
              <path id="Path_147" data-name="Path 147" d="M883.877,1359.637c2.5-.965,5.08-1.964,7.794-1.708,4.76.45,8.834,5.157,9.081,10.493a16.458,16.458,0,0,1-3.871,10.805q-.24-.15-.477-.3a15.92,15.92,0,0,0,3.787-10.478c-.235-5.068-4.08-9.536-8.573-9.961-2.58-.239-4.989.687-7.539,1.673-.91.352-1.836.706-2.776,1.007-.048-.181-.1-.362-.139-.546C882.081,1360.327,882.987,1359.981,883.877,1359.637Z" transform="translate(-881.165 -1282.827)" fill="#fff"/>
              <path id="Path_148" data-name="Path 148" d="M413.23,1297.761c3.265-2.7,8.339-3.422,13.918-1.98a24.019,24.019,0,0,1,12.168,7.2c-.193.062-.381.132-.576.189a23.554,23.554,0,0,0-11.733-6.85c-5.4-1.4-10.295-.715-13.42,1.869a12.192,12.192,0,0,0-3.3,4.545l-.58-.067A12.837,12.837,0,0,1,413.23,1297.761Z" transform="translate(-278.5 -1238.812)" fill="#fff"/>
              <path id="Path_149" data-name="Path 149" d="M423.824,1129.094a67.75,67.75,0,0,1-17.6-6.828,19.224,19.224,0,0,1-6.083-4.97,8.537,8.537,0,0,1-1.563-7.6,5.944,5.944,0,0,1,1.524-2.4l.432.354a5.415,5.415,0,0,0-1.422,2.224,7.978,7.978,0,0,0,1.481,7.094,18.711,18.711,0,0,0,5.911,4.817,66.351,66.351,0,0,0,16.584,6.557Q423.459,1128.713,423.824,1129.094Z" transform="translate(-259.574 -1107.289)" fill="#fff"/>
            </g>
            <g id="Group_77" data-name="Group 77" transform="translate(56.327)">
              <path id="Path_150" data-name="Path 150" d="M663.173,1133.24l.01.959.152,14.9.019,1.614a9.276,9.276,0,0,0,18.551-.01l.18-18.408Z" transform="translate(-652.963 -1097.138)" fill="#f9b384"/>
              <path id="Path_151" data-name="Path 151" d="M686.754,1138.662l.152,14.9c8.278-3.37,11.687-12.333,11.687-12.333Z" transform="translate(-676.534 -1101.601)" fill="#102048"/>
              <path id="Path_152" data-name="Path 152" d="M663.464,1048.827c-2.967,3.56-11.63,23.734-2.848,30.617,9.882,7.745,24.921-4.984,24.921-4.984l2.017-23.5-13.054-3.441Z" transform="translate(-656.519 -1037.76)" fill="#f9b384"/>
              <path id="Path_153" data-name="Path 153" d="M602.63,1047.559s28.954,15.1,5.346,58.632a11.858,11.858,0,0,1-15.494,5.3h0a11.744,11.744,0,0,1-5.15-16.4c3.862-6.861,7.589-15.695,6-22.268Z" transform="translate(-564.944 -1037.786)" fill="#102048"/>
              <circle id="Ellipse_17" data-name="Ellipse 17" cx="7.832" cy="7.832" r="7.832" transform="translate(34.951 27.998) rotate(-135)" fill="#fbc343"/>
              <path id="Path_154" data-name="Path 154" d="M652.88,1041.263c.846-4.886,1.362-8.237-3.577-10.756,0,0-17.405,3.164-20.728-3.4s1.741-16.93,12.342-9.731c27.136-5.3,30.775,20.095,22.548,28.56l-8.121-1.246A2.957,2.957,0,0,1,652.88,1041.263Z" transform="translate(-627.565 -1014.931)" fill="#102048"/>
              <g id="Group_76" data-name="Group 76" transform="translate(2.85 17.419)">
                <circle id="Ellipse_18" data-name="Ellipse 18" cx="1.157" cy="1.157" r="1.157" transform="translate(7.832 7.77)" fill="#102048"/>
                <circle id="Ellipse_19" data-name="Ellipse 19" cx="1.157" cy="1.157" r="1.157" transform="translate(0 3.913)" fill="#102048"/>
                <path id="Path_155" data-name="Path 155" d="M737.149,1102.284a.327.327,0,0,0,.238-.553c-.464-.489-.972-1.175-.759-1.673.222-.517,1.16-.74,1.589-.74.923,0,1.366-1.642,1.446-1.971a.328.328,0,0,0-.637-.154c-.169.694-.55,1.47-.809,1.47-.442,0-1.793.209-2.191,1.137-.285.663.013,1.465.886,2.383A.327.327,0,0,0,737.149,1102.284Z" transform="translate(-735.191 -1089.796)" fill="#102048"/>
                <path id="Path_156" data-name="Path 156" d="M727.929,1124.632a.276.276,0,0,1,.183.073,3.536,3.536,0,0,0,4.4.292.291.291,0,0,1,.447.157.5.5,0,0,1-.12.581,4.029,4.029,0,0,1-5.094-.325.509.509,0,0,1-.088-.59A.315.315,0,0,1,727.929,1124.632Z" transform="translate(-726.03 -1110.062)" fill="#102048"/>
                <path id="Path_157" data-name="Path 157" d="M702.9,1084.893c-.658,1.239.489,1.487,1.833,2.2s2.72.975,3.034.385-.521-1.649-1.865-2.363S703.411,1083.934,702.9,1084.893Z" transform="translate(-693.405 -1080.977)" fill="#102048"/>
                <path id="Path_158" data-name="Path 158" d="M739.789,1074.765c-.289,1.106-1.114.621-2.314.308s-2.168-.917-2.03-1.444,1.222-.7,2.422-.387S740.012,1073.909,739.789,1074.765Z" transform="translate(-735.193 -1073.085)" fill="#102048"/>
              </g>
              <ellipse id="Ellipse_20" data-name="Ellipse 20" cx="3.412" cy="3.412" rx="3.412" ry="3.412" transform="translate(17.375 36.567) rotate(-137.315)" fill="#eb5d60" opacity="0.4"/>
              <ellipse id="Ellipse_21" data-name="Ellipse 21" cx="4.621" cy="5.251" rx="4.621" ry="5.251" transform="translate(28.802 38.624) rotate(-127.658)" fill="#f9b384"/>
              <path id="Path_159" data-name="Path 159" d="M652.891,1117.762a.327.327,0,0,0,.328-.328,2.871,2.871,0,0,1,1.261-2.392,2.312,2.312,0,0,1,2.153-.287.328.328,0,0,0,.247-.607,2.965,2.965,0,0,0-2.766.35,3.524,3.524,0,0,0-1.551,2.936A.327.327,0,0,0,652.891,1117.762Z" transform="translate(-624.785 -1084.291)" fill="#102048"/>
            </g>
            <g id="Group_78" data-name="Group 78" transform="translate(23.205 57.261)">
              <rect id="Rectangle_18" data-name="Rectangle 18" width="17.416" height="0.749" transform="translate(89.047 37.18) rotate(-51)" fill="#102048"/>
              <path id="Path_160" data-name="Path 160" d="M812.03,1352.3l.218-.716c-8.606-2.623-16.958-5.761-24.528-15.227l-.585.468C794.839,1346.462,803.307,1349.646,812.03,1352.3Z" transform="translate(-787.136 -1297.345)" fill="#102048"/>
            </g>
          </g>
          <g id="Group_82" data-name="Group 82" transform="translate(43.557 83.223)">
            <g id="Group_80" data-name="Group 80">
              <path id="Path_161" data-name="Path 161" d="M549.767,1292.776h73.21a4.974,4.974,0,0,1,4.767,5.157v52.27a4.974,4.974,0,0,1-4.767,5.157h-73.21A4.974,4.974,0,0,1,545,1350.2v-52.27A4.974,4.974,0,0,1,549.767,1292.776Z" transform="translate(-545 -1292.776)" fill="#d3dfff"/>
            </g>
            <g id="Group_81" data-name="Group 81" transform="translate(35.507 26.491)">
              <path id="Path_162" data-name="Path 162" d="M665.543,1382.716a.525.525,0,0,0-.5.545v5.518a.525.525,0,0,0,.5.545h7.73a.525.525,0,0,0,.5-.545v-5.518a.525.525,0,0,0-.5-.545h-7.73m0-1.5h7.73a2.024,2.024,0,0,1,2,2.042v5.518a2.024,2.024,0,0,1-2,2.042h-7.73a2.024,2.024,0,0,1-2-2.042v-5.518a2.024,2.024,0,0,1,2-2.042Z" transform="translate(-663.542 -1381.218)" fill="#1f3c88"/>
            </g>
          </g>
        </g>
      </g>
      <rect id="Rectangle_19" data-name="Rectangle 19" width="444.102" height="1.498" transform="translate(280.261 763.691)" fill="#102048"/>
    </g>
    <g id="Group_90" data-name="Group 90">
      <path id="Path_163" data-name="Path 163" d="M0,0,70.73-6.877,80,0V272H0l-8.935-6.978Z" transform="translate(1031 733)" fill="#69349c"/>
      <path id="Path_164" data-name="Path 164" d="M0,0H80V272H0Z" transform="translate(1022 726)" fill="#874fbe"/>
    </g>
    <g id="Group_87" data-name="Group 87" transform="translate(1020.065 1011.179)">
      <path id="Path_120" data-name="Path 120" d="M1232.675,1452.027q0,19.669-12.735,30.369a44.082,44.082,0,0,1-57.612,0q-12.713-10.707-12.72-30.369t12.72-30.369c13.068-11.029,32.4-13.486,47.7-5.746C1223.608,1422.781,1232.675,1436.729,1232.675,1452.027Z" transform="translate(-1135.38 -1410.944)" fill="#69349c"/>
      <path id="Path_121" data-name="Path 121" d="M1185.175,1450.931q0,19.669-12.735,30.369a44.082,44.082,0,0,1-57.612,0q-12.713-10.707-12.72-30.369t12.72-30.369a44.082,44.082,0,0,1,57.612,0Q1185.175,1431.291,1185.175,1450.931Z" transform="translate(-1102.108 -1409.848)" fill="#874fbe"/>
    </g>
  </g>
</svg>
