<svg xmlns="http://www.w3.org/2000/svg" width="441.409" height="394.235" viewBox="0 0 441.409 394.235">
  <g id="Group_85" data-name="Group 85" transform="translate(-280.261 -370.954)">
    <g id="Group_61" data-name="Group 61" transform="translate(281.844 506.009)">
      <g id="Group_60" data-name="Group 60" transform="translate(0 50.924)">
        <path id="Path_111" data-name="Path 111" d="M712.591,1091.032a71.183,71.183,0,0,0-37.737-36.867c-17.347-7.025-37.265-4.468-55.536-6.821-15.869-2.043-27.319-9.128-36.794-21.723-9.079-12.068-17.219-25.434-32.063-31.016-11.729-4.411-25.064-3.188-36.722,1.408-21.481,8.47-37.7,26.478-51.369,44.419-12.475,16.38-22.651,34.317-45.726,34.9s-45.072-12.586-68.321-9.1c-30.727,4.613-56.316,30.192-61.678,60.644-5.026,28.54,7.585,56.22,29.25,72.484H688.276C715.575,1170.407,729.9,1130.4,712.591,1091.032Z" transform="translate(-285.545 -991.86)" fill="#874fbe" opacity="0.61"/>
        <g id="Group_59" data-name="Group 59" transform="translate(11.913 5.758)">
          <path id="Path_112" data-name="Path 112" d="M561.545,1373.2h1.024A78.575,78.575,0,0,0,578.8,1345.36c5.734-17.047,5.492-34.937-.681-50.375-3.12-7.8-7.624-15.073-11.981-22.1-4.418-7.131-8.986-14.505-12.087-22.407a49.981,49.981,0,0,1-2.8-10.355c-.257-.033-.514-.061-.771-.092a50.664,50.664,0,0,0,2.872,10.721c3.125,7.966,7.712,15.369,12.147,22.529,4.34,7,8.827,14.247,11.922,21.988,6.107,15.273,6.343,32.98.666,49.858A77.716,77.716,0,0,1,561.545,1373.2Z" transform="translate(-483.038 -1171.451)" fill="#fff"/>
          <path id="Path_113" data-name="Path 113" d="M1009.9,1180.357c7.672,1.635,15.066,3.1,22.217,4.023.123-.236.242-.474.363-.71-7.21-.916-14.673-2.394-22.423-4.045-11.8-2.514-24.575-5.236-37.243-5.236a66.106,66.106,0,0,0-23.155,3.825,47.237,47.237,0,0,0-8.194,3.983c-6.777-2.889-13.591-6.042-20.342-9.5,4.9-3.69,9.847-7.3,14.85-10.8,37.135-25.931,71.407-40.631,104.517-44.8-.067-.242-.136-.485-.2-.728-33.2,4.207-67.545,18.945-104.741,44.917-5.109,3.568-10.163,7.26-15.161,11.03a250.939,250.939,0,0,1-22.351-12.988,194.672,194.672,0,0,1-42.5-37.3c53-5.946,106.963-13.438,151.028-42.889,1.674-1.119,3.527-2.437,5.448-3.933-.213-.151-.427-.3-.642-.448-1.84,1.425-3.615,2.684-5.222,3.758-44.055,29.444-98.116,36.878-151.186,42.823a145.654,145.654,0,0,1-24.3-41.318c-9.348-24.761-8.854-49.061,1.354-66.668.444-.765.911-1.517,1.394-2.263-.427.2-.849.4-1.271.6q-.394.638-.771,1.285c-10.321,17.8-10.834,42.335-1.407,67.308a146.225,146.225,0,0,0,24.113,41.152q-4.608.515-9.208,1.021c-11.051,1.22-22.479,2.481-33.575,3.909-4.051.521-8.169,1.13-12.268,1.892-8.786-18.543-18.437-36.633-30.913-52.147-.178.178-.36.35-.54.526,12.369,15.4,21.96,33.351,30.692,51.765-17.876,3.409-35.234,9.818-44.5,24.735-8.656,13.931-8.648,33.187.023,57.235q.45,1.247.922,2.466h.8c-.344-.89-.685-1.791-1.02-2.72-8.59-23.821-8.62-42.859-.091-56.586,9.158-14.74,26.421-21.063,44.2-24.431,3.1,6.561,6.1,13.176,9.076,19.75l.324.715c10.341,22.83,21.038,44.862,35.043,63.272h.935c-14.132-18.444-24.889-40.608-35.3-63.58l-.324-.715c-2.952-6.518-5.923-13.077-9-19.583,4.019-.743,8.059-1.338,12.032-1.849,11.089-1.427,22.514-2.689,33.561-3.908q4.84-.534,9.7-1.075a195.178,195.178,0,0,0,42.984,37.828,251.369,251.369,0,0,0,22.1,12.863c-12.738,9.635-25.129,19.772-37.226,29.669q-6.283,5.141-12.7,10.351h1.187q6.043-4.9,11.984-9.772c12.183-9.967,24.661-20.176,37.49-29.868,6.712,3.453,13.488,6.6,20.23,9.486a55.821,55.821,0,0,0-21.285,25.979c-.569,1.381-1.066,2.775-1.526,4.175h.788c.434-1.3.9-2.6,1.43-3.89a54.964,54.964,0,0,1,21.431-25.906A494.807,494.807,0,0,0,994.81,1201.7l.6.177c6.707,1.983,13.566,4.016,19.634,7.28.17-.193.34-.386.509-.58-6.166-3.345-13.127-5.406-19.93-7.417l-.6-.177a495.738,495.738,0,0,1-52.706-18.419,46.409,46.409,0,0,1,7.6-3.643C969.348,1171.716,990.892,1176.307,1009.9,1180.357Z" transform="translate(-620.881 -1011.084)" fill="#fff"/>
          <path id="Path_114" data-name="Path 114" d="M345.632,1352.257a59.99,59.99,0,0,1-4.049,40.113,69.053,69.053,0,0,1-16.265,21.007c.136.212.276.422.414.633a69.822,69.822,0,0,0,16.523-21.309,60.748,60.748,0,0,0,4.1-40.621c-2.616-10.709-7.876-19.779-15.143-26.342q-.243.286-.483.574C337.879,1332.773,343.054,1341.706,345.632,1352.257Z" transform="translate(-325.318 -1231.489)" fill="#fff"/>
        </g>
      </g>
      <path id="Path_115" data-name="Path 115" d="M848.8,827.8c6.524,6.666,9.447,17.9,5.85,28.25-3.483,10.025-11.117,18.329-20.29,23.668-7.38,4.3-17.007,6.665-24.265,2.167-5.424-3.361-8.236-9.955-8.393-16.334s1.989-12.6,4.64-18.4c3.737-8.181,8.768-16.115,16.261-21.09C832.931,819.2,842.528,821.39,848.8,827.8Z" transform="translate(-647.092 -821.845)" fill="#874fbe" opacity="0.6"/>
    </g>
    <g id="Group_62" data-name="Group 62" transform="translate(307.921 370.954)">
      <path id="Path_116" data-name="Path 116" d="M543.945,395.085H489.928V370.954h54.017Zm-52.894-1.123h51.771V372.077H491.051Z" transform="translate(-454.787 -370.954)" fill="#e9ddca"/>
      <path id="Path_117" data-name="Path 117" d="M426.624,472.128H372.607V448h54.017Zm-52.894-1.123H425.5V449.12H373.73Z" transform="translate(-372.607 -424.92)" fill="#e9ddca"/>
    </g>
    <g id="Group_65" data-name="Group 65" transform="translate(469.513 376.778)">
      <g id="Group_63" data-name="Group 63" transform="translate(0 0)">
        <path id="Path_118" data-name="Path 118" d="M1180.277,460.469a83.482,83.482,0,0,0-18.456-32.071q-13.237-14.643-36.105-24.195t-58.113-9.561a227.358,227.358,0,0,0-57.306,7.583q-29.218,7.61-50.705,21.667l18.654,51.213-10,8.1,14.5,4.261q21.47-11.237,39.119-16.319a135.253,135.253,0,0,1,37.468-5.055q19.828,0,30.025,9.561a30.513,30.513,0,0,1,10.188,23.078,44.283,44.283,0,0,1-10.457,28.975q-10.492,12.665-23.155,25.6-8.8,8.984-17.075,18.554a133.182,133.182,0,0,0-14.6,20.55,111.726,111.726,0,0,0-10.188,23.627,96.977,96.977,0,0,0-3.856,28.408c0,3.388.072,7.418.269,12.106.033.865.079,1.708.13,2.541h-13.707l14.958,10.115H1094.6a48.323,48.323,0,0,1-.556-7.876v-6.759a48.853,48.853,0,0,1,3.856-18.847,97.475,97.475,0,0,1,9.65-17.729,130.956,130.956,0,0,1,12.949-16.026q7.157-7.61,13.775-14.359,8.8-8.984,18.169-19.121a150.293,150.293,0,0,0,16.537-21.374,120.082,120.082,0,0,0,11.838-24.488,86.207,86.207,0,0,0,4.7-28.975A115.872,115.872,0,0,0,1180.277,460.469Z" transform="translate(-945.364 -393.372)" fill="#69349c"/>
        <path id="Path_119" data-name="Path 119" d="M1010.664,459.547a136.308,136.308,0,0,0-37.029,4.892q-17.442,4.919-38.66,15.794l-22.884-61.525q21.244-13.614,50.11-20.969a229.172,229.172,0,0,1,56.633-7.338q34.831,0,57.431,9.253t35.682,23.415a80.4,80.4,0,0,1,18.24,31.038,110.009,110.009,0,0,1,5.176,32.119,81.86,81.86,0,0,1-4.644,28.042,115.218,115.218,0,0,1-11.7,23.7,145.919,145.919,0,0,1-16.343,20.686q-9.253,9.811-17.956,18.506-6.541,6.541-13.613,13.9a127.273,127.273,0,0,0-12.8,15.51,93.728,93.728,0,0,0-9.536,17.159,46.434,46.434,0,0,0-3.811,18.24V648.5a45.816,45.816,0,0,0,.55,7.622H973.635a76.19,76.19,0,0,1-1.365-12.248c-.195-4.538-.266-8.437-.266-11.717a92.037,92.037,0,0,1,3.811-27.492A106.977,106.977,0,0,1,985.884,581.8a128.935,128.935,0,0,1,14.429-19.888q8.162-9.253,16.875-17.956,12.523-12.523,22.884-24.78a42.322,42.322,0,0,0,10.334-28.042q0-13.081-10.068-22.334T1010.664,459.547Z" transform="translate(-912.092 -390.399)" fill="#874fbe"/>
      </g>
      <g id="Group_64" data-name="Group 64" transform="translate(56.915 305.355)">
        <path id="Path_120" data-name="Path 120" d="M1232.675,1452.027q0,19.669-12.735,30.369a44.082,44.082,0,0,1-57.612,0q-12.713-10.707-12.72-30.369t12.72-30.369c13.068-11.029,32.4-13.486,47.7-5.746C1223.608,1422.781,1232.675,1436.729,1232.675,1452.027Z" transform="translate(-1135.38 -1410.944)" fill="#69349c"/>
        <path id="Path_121" data-name="Path 121" d="M1185.175,1450.931q0,19.669-12.735,30.369a44.082,44.082,0,0,1-57.612,0q-12.713-10.707-12.72-30.369t12.72-30.369a44.082,44.082,0,0,1,57.612,0Q1185.175,1431.291,1185.175,1450.931Z" transform="translate(-1102.108 -1409.848)" fill="#874fbe"/>
      </g>
    </g>
    <g id="Group_84" data-name="Group 84" transform="translate(304.554 452.826)">
      <g id="Group_68" data-name="Group 68" transform="translate(18.984 0)">
        <circle id="Ellipse_11" data-name="Ellipse 11" cx="7.833" cy="7.833" r="7.833" transform="matrix(0.184, -0.983, 0.983, 0.184, 53.801, 89.307)" fill="#d3dfff"/>
        <ellipse id="Ellipse_12" data-name="Ellipse 12" cx="4.405" cy="4.437" rx="4.405" ry="4.437" transform="translate(64.849 101.903) rotate(-79.386)" fill="#d3dfff"/>
        <g id="Group_67" data-name="Group 67">
          <circle id="Ellipse_13" data-name="Ellipse 13" cx="30.84" cy="30.84" r="30.84" transform="translate(0 43.614) rotate(-45)" fill="#d3dfff"/>
          <text id="UX_" data-name="UX?" transform="translate(43.723 49.128)" fill="#fff" font-size="16" font-family="Roboto-Regular, Roboto"><tspan x="-13.98" y="0">UX?</tspan></text>
        </g>
      </g>
      <g id="Group_83" data-name="Group 83" transform="translate(0 111.018)">
        <g id="Group_71" data-name="Group 71" transform="translate(18.062 122.678)">
          <g id="Group_69" data-name="Group 69" transform="translate(22.253 50.512)">
            <path id="Path_122" data-name="Path 122" d="M496.151,1604.963l2.881,11.109a6.365,6.365,0,0,0,6.651,4.644c9.448-.642,29.079-2.957,40.345-11.261l-3.2-16.01c-15.491-.875-29.978-.014-42.523,4.21A6.135,6.135,0,0,0,496.151,1604.963Z" transform="translate(-495.961 -1593.136)" fill="#102048"/>
            <path id="Path_123" data-name="Path 123" d="M546.951,1628a.375.375,0,0,1-.36-.274l-3.869-13.853a.375.375,0,0,1,.722-.2l3.869,13.853a.374.374,0,0,1-.26.461A.38.38,0,0,1,546.951,1628Z" transform="translate(-528.706 -1607.326)" fill="#fff"/>
            <path id="Path_124" data-name="Path 124" d="M574.868,1621.744a.375.375,0,0,1-.361-.274l-3.869-13.853a.374.374,0,0,1,.721-.2l3.869,13.853a.375.375,0,0,1-.26.461A.382.382,0,0,1,574.868,1621.744Z" transform="translate(-548.26 -1602.947)" fill="#fff"/>
          </g>
          <path id="Path_125" data-name="Path 125" d="M533.015,1426.788l-36,10.686,26.739,36.636,38.387,3.053,52.948-22.389-20.12-30.276Z" transform="translate(-474.443 -1424.498)" fill="#874fbe"/>
          <path id="Path_126" data-name="Path 126" d="M664.7,1438c79.069-23.407,91.776,46.474-31.592,59.2-4.358-4.9-9.45-13.411-11.472-20.523l65.149-30.106Z" transform="translate(-561.737 -1430.624)" fill="#874fbe"/>
          <path id="Path_127" data-name="Path 127" d="M729.966,1608.095a34.208,34.208,0,0,1-7.241-3.524l-12.708,3.986,2.912,13.824,13.2,2.682C730.151,1617.707,730.386,1611.668,729.966,1608.095Z" transform="translate(-623.648 -1550.634)" fill="#f9b384"/>
          <path id="Path_128" data-name="Path 128" d="M621.255,1501.652l-.564-.971c13.591-7.9,48.4-26.875,78.066-32.471l.208,1.1C669.475,1474.878,634.8,1493.783,621.255,1501.652Z" transform="translate(-561.077 -1455.117)" fill="#69349c"/>
          <path id="Path_129" data-name="Path 129" d="M480.239,1427.878c-73.6-13.993-92.658,56.736,30.71,69.457a44.814,44.814,0,0,0,9.8-17.809,561.657,561.657,0,0,0-63.361-36.213Z" transform="translate(-421.667 -1425.589)" fill="#874fbe"/>
          <path id="Path_130" data-name="Path 130" d="M585.3,1505.819c-3.5-2.228-7.149-4.584-11.011-7.078-19.388-12.518-41.362-26.706-60.032-34.8l.447-1.031c18.754,8.127,40.77,22.342,60.194,34.883,3.861,2.493,7.507,4.847,11.005,7.073Z" transform="translate(-486.521 -1451.408)" fill="#69349c"/>
          <path id="Path_131" data-name="Path 131" d="M434.638,1524.507l-.983-.543a20.65,20.65,0,0,1,13.152-10.026l.3,1.082C441.365,1516.61,437.286,1519.714,434.638,1524.507Z" transform="translate(-430.064 -1487.148)" fill="#69349c"/>
          <path id="Path_132" data-name="Path 132" d="M920.612,1510.291c-2.648-4.793-6.726-7.9-12.468-9.487l.3-1.082a20.651,20.651,0,0,1,13.152,10.026Z" transform="translate(-762.43 -1477.19)" fill="#69349c"/>
          <path id="Path_133" data-name="Path 133" d="M694.811,1612.574l-.821-.766c5.887-6.305,9.5-12.962,11.054-20.35l1.1.231C704.549,1599.283,700.842,1606.115,694.811,1612.574Z" transform="translate(-612.421 -1541.449)" fill="#69349c"/>
          <g id="Group_70" data-name="Group 70" transform="translate(102.483 51.535)">
            <path id="Path_134" data-name="Path 134" d="M804.353,1598.359c-9.43-5.826-27.709,4.24-32.3,4.749a11.046,11.046,0,0,1-4.407-.632c.42,3.573.185,9.613-3.836,16.968l2.242.456s15.5,5.682,31.945,2.375C813.177,1619.222,811.766,1602.939,804.353,1598.359Z" transform="translate(-763.812 -1596.551)" fill="#102048"/>
            <path id="Path_135" data-name="Path 135" d="M851.434,1628.116a.379.379,0,0,1-.113-.017.374.374,0,0,1-.244-.47c1.12-3.547,1.609-10.525-1.636-15.212a.375.375,0,0,1,.616-.427c3.4,4.908,2.9,12.176,1.734,15.864A.375.375,0,0,1,851.434,1628.116Z" transform="translate(-823.746 -1607.253)" fill="#fff"/>
            <path id="Path_136" data-name="Path 136" d="M826.747,1632.8a.374.374,0,0,1-.357-.487c1.12-3.547,1.609-10.526-1.636-15.213a.374.374,0,0,1,.616-.426c3.4,4.908,2.9,12.176,1.734,15.864A.374.374,0,0,1,826.747,1632.8Z" transform="translate(-806.453 -1610.537)" fill="#fff"/>
          </g>
        </g>
        <g id="Group_79" data-name="Group 79">
          <g id="Group_73" data-name="Group 73" transform="translate(41.726 0.661)">
            <path id="Path_137" data-name="Path 137" d="M522.558,1050.247s18.535-15.762,17.849-18.757c-.49-2.141-5.741,1-5.741,1s7.363-8.736,6.989-9.8c-.669-1.9-5.762,1.638-5.762,1.638s3.442-4.955,1.8-5.762-5.233,2.246-5.233,2.246,2.1-2.751,1.111-3.472-5.233,2.246-5.233,2.246,1.525-3.469-1.714-2.154-25.949,22.156-25.949,22.156Z" transform="translate(-500.671 -1017.136)" fill="#f9b384"/>
            <g id="Group_72" data-name="Group 72" transform="translate(20.86 2.077)">
              <path id="Path_138" data-name="Path 138" d="M578.924,1052.352a.373.373,0,0,1-.252-.1,17,17,0,0,0-8.094-4.692.374.374,0,1,1,.22-.715c3.637,1.118,5.089,1.849,8.38,4.855a.375.375,0,0,1-.253.651Z" transform="translate(-570.312 -1040.012)" fill="#e28b6d"/>
              <path id="Path_139" data-name="Path 139" d="M579.542,1080.156a.374.374,0,0,1-.371-.426c.364-2.607,1.185-4.235,2.508-4.979,1.131-.636,2.6-.571,4.376.194a.374.374,0,0,1-.3.687c-1.546-.668-2.795-.745-3.712-.229-1.091.613-1.809,2.1-2.134,4.43A.374.374,0,0,1,579.542,1080.156Z" transform="translate(-576.515 -1059.267)" fill="#e28b6d"/>
              <path id="Path_140" data-name="Path 140" d="M576.624,1029.2a.374.374,0,0,1-.257-.647l4.651-4.384a.374.374,0,1,1,.514.545l-4.651,4.384A.371.371,0,0,1,576.624,1029.2Z" transform="translate(-574.471 -1024.07)" fill="#e28b6d"/>
              <path id="Path_141" data-name="Path 141" d="M591,1033.568a.374.374,0,0,1-.27-.633l4.467-4.655a.374.374,0,0,1,.54.518l-4.467,4.655A.373.373,0,0,1,591,1033.568Z" transform="translate(-584.541 -1026.938)" fill="#e28b6d"/>
              <path id="Path_142" data-name="Path 142" d="M605.687,1044.412a.374.374,0,0,1-.274-.63l3.505-3.76a.374.374,0,1,1,.548.511l-3.505,3.76A.375.375,0,0,1,605.687,1044.412Z" transform="translate(-594.829 -1035.161)" fill="#e28b6d"/>
            </g>
          </g>
          <g id="Group_74" data-name="Group 74" transform="translate(0 18.965)">
            <path id="Path_143" data-name="Path 143" d="M631.507,1270.671l-67.769,2.621-7.488-61.778s22.687-21.519,31.416-29.443l14.735-.756C648.119,1202.1,640.633,1228.05,631.507,1270.671Z" transform="translate(-497.876 -1150.443)" fill="#3a6bea"/>
            <path id="Path_144" data-name="Path 144" d="M710.329,1181.315s52.3,4.473,68.793,40.308c16.135,35.064-50.171,47.55-50.171,47.55Z" transform="translate(-605.804 -1150.443)" fill="#3a6bea"/>
            <path id="Path_145" data-name="Path 145" d="M406.1,1116.8l21.614-26.3L407.5,1078.245a263.58,263.58,0,0,0-38.552,34.177,28.537,28.537,0,0,0-6.632,11.464,24.669,24.669,0,0,0-.634,10.763h0a20.78,20.78,0,0,0,18.364,17.4c8.234.964,39.688-1.5,65.148-8.986l7.488-28.9C448.838,1111.976,420.24,1111.6,406.1,1116.8Z" transform="translate(-361.364 -1078.245)" fill="#3a6bea"/>
          </g>
          <g id="Group_75" data-name="Group 75" transform="translate(11.046 27.664)" opacity="0.8">
            <path id="Path_146" data-name="Path 146" d="M796.168,1204.662l.338-.078c-.236-.14-.474-.276-.71-.413a113.424,113.424,0,0,1-11.686,2.255c-2.343.282-10.171.8-12.459-4.416-1.138-2.595-.277-5.481,1.01-7.506l-.561-.161c-1.318,2.146-2.164,5.156-.964,7.892,2.443,5.571,10.6,5.043,13.04,4.748A115.759,115.759,0,0,0,796.168,1204.662Z" transform="translate(-659.04 -1168.268)" fill="#fff"/>
            <path id="Path_147" data-name="Path 147" d="M898.053,1359.637c-2.5-.965-5.08-1.964-7.794-1.708-4.76.45-8.834,5.157-9.081,10.493a16.458,16.458,0,0,0,3.871,10.805q.24-.15.477-.3a15.92,15.92,0,0,1-3.787-10.478c.235-5.068,4.08-9.536,8.573-9.961,2.58-.239,4.989.687,7.539,1.673.91.352,1.836.706,2.776,1.007.048-.181.1-.362.139-.546C899.849,1360.327,898.944,1359.981,898.053,1359.637Z" transform="translate(-736.516 -1282.827)" fill="#fff"/>
            <path id="Path_148" data-name="Path 148" d="M435.794,1297.761c-3.265-2.7-8.339-3.422-13.918-1.98a24.019,24.019,0,0,0-12.168,7.2c.193.062.381.132.576.189a23.554,23.554,0,0,1,11.733-6.85c5.4-1.4,10.295-.715,13.42,1.869a12.192,12.192,0,0,1,3.3,4.545l.58-.067A12.837,12.837,0,0,0,435.794,1297.761Z" transform="translate(-406.273 -1238.812)" fill="#fff"/>
            <path id="Path_149" data-name="Path 149" d="M398.243,1129.094a67.75,67.75,0,0,0,17.6-6.828,19.224,19.224,0,0,0,6.083-4.97,8.537,8.537,0,0,0,1.563-7.6,5.944,5.944,0,0,0-1.524-2.4l-.432.354a5.415,5.415,0,0,1,1.422,2.224,7.978,7.978,0,0,1-1.481,7.094,18.711,18.711,0,0,1-5.911,4.817,66.351,66.351,0,0,1-16.584,6.557Q398.608,1128.713,398.243,1129.094Z" transform="translate(-398.243 -1107.289)" fill="#fff"/>
          </g>
          <g id="Group_77" data-name="Group 77" transform="translate(67.225)">
            <path id="Path_150" data-name="Path 150" d="M682.084,1133.24l-.01.959-.152,14.9-.019,1.614a9.276,9.276,0,0,1-18.551-.01l-.18-18.408Z" transform="translate(-639.998 -1097.138)" fill="#f9b384"/>
            <path id="Path_151" data-name="Path 151" d="M698.593,1138.662l-.152,14.9c-8.278-3.37-11.687-12.333-11.687-12.333Z" transform="translate(-656.516 -1101.601)" fill="#102048"/>
            <path id="Path_152" data-name="Path 152" d="M680.876,1048.827c2.967,3.56,11.63,23.734,2.848,30.617-9.882,7.745-24.921-4.984-24.921-4.984l-2.017-23.5,13.054-3.441Z" transform="translate(-635.524 -1037.76)" fill="#f9b384"/>
            <path id="Path_153" data-name="Path 153" d="M600.412,1047.559s-28.954,15.1-5.346,58.632a11.858,11.858,0,0,0,15.494,5.3h0a11.744,11.744,0,0,0,5.15-16.4c-3.862-6.861-7.589-15.695-6-22.268Z" transform="translate(-585.801 -1037.786)" fill="#102048"/>
            <circle id="Ellipse_17" data-name="Ellipse 17" cx="7.832" cy="7.832" r="7.832" transform="translate(6.269 16.922) rotate(-45)" fill="#fbc343"/>
            <path id="Path_154" data-name="Path 154" d="M642.037,1041.263c-.846-4.886-1.362-8.237,3.577-10.756,0,0,17.405,3.164,20.728-3.4s-1.741-16.93-12.342-9.731c-27.136-5.3-30.775,20.095-22.548,28.56l8.121-1.246A2.957,2.957,0,0,0,642.037,1041.263Z" transform="translate(-615.055 -1014.931)" fill="#102048"/>
            <g id="Group_76" data-name="Group 76" transform="translate(35.018 17.419)">
              <circle id="Ellipse_18" data-name="Ellipse 18" cx="1.157" cy="1.157" r="1.157" transform="translate(4.282 7.77)" fill="#102048"/>
              <circle id="Ellipse_19" data-name="Ellipse 19" cx="1.157" cy="1.157" r="1.157" transform="translate(12.115 3.913)" fill="#102048"/>
              <path id="Path_155" data-name="Path 155" d="M738.444,1102.284a.327.327,0,0,1-.238-.553c.464-.489.972-1.175.759-1.673-.222-.517-1.16-.74-1.589-.74-.923,0-1.366-1.642-1.446-1.971a.328.328,0,0,1,.637-.154c.169.694.55,1.47.809,1.47.442,0,1.793.209,2.191,1.137.285.663-.013,1.465-.886,2.383A.327.327,0,0,1,738.444,1102.284Z" transform="translate(-725.973 -1089.796)" fill="#102048"/>
              <path id="Path_156" data-name="Path 156" d="M732.675,1126.072a.325.325,0,0,1-.183-.056,4.379,4.379,0,0,0-4.4-.225.328.328,0,0,1-.327-.568,4.981,4.981,0,0,1,5.094.25.327.327,0,0,1-.184.6Z" transform="translate(-720.146 -1109.192)" fill="#102048"/>
              <path id="Path_157" data-name="Path 157" d="M707.643,1084.893c.658,1.239-.489,1.487-1.833,2.2s-2.72.975-3.034.385.521-1.649,1.865-2.363S707.133,1083.934,707.643,1084.893Z" transform="translate(-702.71 -1080.977)" fill="#102048"/>
              <path id="Path_158" data-name="Path 158" d="M735.464,1074.765c.289,1.106,1.114.621,2.314.308s2.168-.917,2.03-1.444-1.222-.7-2.422-.387S735.24,1073.909,735.464,1074.765Z" transform="translate(-725.63 -1073.085)" fill="#102048"/>
            </g>
            <circle id="Ellipse_20" data-name="Ellipse 20" cx="3.412" cy="3.412" r="3.412" transform="matrix(0.735, -0.678, 0.678, 0.735, 30.296, 31.551)" fill="#eb5d60" opacity="0.4"/>
            <ellipse id="Ellipse_21" data-name="Ellipse 21" cx="4.621" cy="5.251" rx="4.621" ry="5.251" transform="matrix(0.611, -0.792, 0.792, 0.611, 15.18, 32.208)" fill="#f9b384"/>
            <path id="Path_159" data-name="Path 159" d="M656.757,1117.762a.327.327,0,0,1-.328-.328,2.871,2.871,0,0,0-1.261-2.392,2.312,2.312,0,0,0-2.153-.287.328.328,0,0,1-.247-.607,2.965,2.965,0,0,1,2.766.35,3.524,3.524,0,0,1,1.551,2.936A.327.327,0,0,1,656.757,1117.762Z" transform="translate(-632.566 -1084.291)" fill="#102048"/>
          </g>
          <g id="Group_78" data-name="Group 78" transform="translate(32.64 57.261)">
            <rect id="Rectangle_18" data-name="Rectangle 18" width="17.416" height="0.749" transform="translate(0 12.789) rotate(-47.248)" fill="#102048"/>
            <path id="Path_160" data-name="Path 160" d="M787.354,1352.3l-.218-.716c8.606-2.623,16.958-5.761,24.528-15.227l.585.468C804.546,1346.462,796.078,1349.646,787.354,1352.3Z" transform="translate(-692.245 -1297.345)" fill="#102048"/>
          </g>
        </g>
        <g id="Group_82" data-name="Group 82" transform="translate(55.004 83.223)">
          <g id="Group_80" data-name="Group 80">
            <path id="Path_161" data-name="Path 161" d="M622.978,1292.776h-73.21a4.974,4.974,0,0,0-4.767,5.157v52.27a4.974,4.974,0,0,0,4.767,5.157h73.21a4.974,4.974,0,0,0,4.767-5.157v-52.27A4.974,4.974,0,0,0,622.978,1292.776Z" transform="translate(-545 -1292.776)" fill="#d3dfff"/>
          </g>
          <g id="Group_81" data-name="Group 81" transform="translate(35.507 26.491)">
            <path id="Path_162" data-name="Path 162" d="M673.273,1382.716a.525.525,0,0,1,.5.545v5.518a.525.525,0,0,1-.5.545h-7.73a.525.525,0,0,1-.5-.545v-5.518a.525.525,0,0,1,.5-.545h7.73m0-1.5h-7.73a2.024,2.024,0,0,0-2,2.042v5.518a2.024,2.024,0,0,0,2,2.042h7.73a2.024,2.024,0,0,0,2-2.042v-5.518a2.024,2.024,0,0,0-2-2.042Z" transform="translate(-663.542 -1381.218)" fill="#1f3c88"/>
          </g>
        </g>
      </g>
    </g>
    <rect id="Rectangle_19" data-name="Rectangle 19" width="441.409" height="1.498" transform="translate(280.261 763.691)" fill="#102048"/>
  </g>
</svg>
